<svg width="1640" height="331" viewBox="0 0 1640 331" fill="none" xmlns="http://www.w3.org/2000/svg">
<path fill-rule="evenodd" clip-rule="evenodd" d="M1130.1 329.735C1135.44 330.276 1140.91 330.557 1146.33 330.557C1146.87 330.557 1147.38 330.346 1147.76 329.97C1148.13 329.594 1148.34 329.085 1148.34 328.554C1148.34 328.022 1148.13 327.513 1147.76 327.137C1147.38 326.761 1146.87 326.55 1146.33 326.55C1141.05 326.53 1135.72 326.27 1130.48 325.749C1129.95 325.699 1129.42 325.861 1129.01 326.199C1128.6 326.537 1128.34 327.023 1128.29 327.552C1128.24 328.081 1128.4 328.607 1128.74 329.017C1129.08 329.426 1129.57 329.685 1130.1 329.735ZM474.933 329.615C480.279 330.196 485.745 330.557 491.171 330.557H491.091C491.363 330.57 491.635 330.529 491.891 330.434C492.147 330.339 492.38 330.194 492.578 330.007C492.775 329.819 492.932 329.594 493.039 329.344C493.146 329.094 493.202 328.825 493.201 328.554C493.201 328.022 492.99 327.513 492.613 327.137C492.236 326.761 491.725 326.55 491.192 326.55C485.906 326.49 480.58 326.19 475.355 325.629C475.092 325.601 474.827 325.625 474.574 325.7C474.32 325.774 474.084 325.898 473.879 326.064C473.674 326.229 473.503 326.434 473.377 326.665C473.251 326.896 473.172 327.15 473.144 327.412C473.117 327.674 473.141 327.938 473.216 328.191C473.29 328.443 473.414 328.678 473.581 328.883C473.747 329.088 473.952 329.258 474.184 329.383C474.416 329.509 474.67 329.588 474.933 329.615ZM505.801 329.393C506.195 329.752 506.716 329.94 507.249 329.916H507.47C512.836 329.435 518.242 328.694 523.548 327.692C524.07 327.59 524.53 327.287 524.827 326.847C525.125 326.408 525.236 325.869 525.135 325.348C525.038 324.829 524.738 324.369 524.301 324.068C523.864 323.768 523.326 323.652 522.804 323.746C517.599 324.73 512.347 325.452 507.068 325.909C506.535 325.933 506.034 326.167 505.674 326.56C505.314 326.952 505.125 327.471 505.149 328.003C505.173 328.534 505.408 329.034 505.801 329.393ZM1160.96 329.293C1161.36 329.651 1161.88 329.84 1162.41 329.816L1162.63 329.856C1168.03 329.35 1173.39 328.575 1178.71 327.532C1178.97 327.481 1179.23 327.378 1179.45 327.23C1179.67 327.082 1179.87 326.891 1180.02 326.669C1180.17 326.447 1180.27 326.197 1180.33 325.934C1180.38 325.672 1180.38 325.401 1180.33 325.138C1180.28 324.875 1180.17 324.625 1180.03 324.401C1179.88 324.178 1179.69 323.986 1179.46 323.836C1179.24 323.686 1178.99 323.582 1178.73 323.529C1178.46 323.475 1178.19 323.474 1177.93 323.526C1172.76 324.547 1167.48 325.308 1162.23 325.809C1161.7 325.833 1161.2 326.067 1160.84 326.46C1160.48 326.852 1160.29 327.371 1160.31 327.903C1160.34 328.434 1160.57 328.934 1160.96 329.293ZM1114.04 327.392H1114.4C1114.87 327.4 1115.33 327.242 1115.7 326.945C1116.07 326.649 1116.32 326.232 1116.41 325.769C1116.51 325.249 1116.4 324.71 1116.1 324.27C1115.8 323.831 1115.34 323.527 1114.82 323.425C1109.68 322.384 1104.49 321.102 1099.45 319.559C1098.94 319.421 1098.41 319.484 1097.95 319.734C1097.49 319.984 1097.15 320.402 1096.99 320.899C1096.84 321.397 1096.89 321.934 1097.12 322.398C1097.36 322.862 1097.77 323.216 1098.26 323.385C1103.45 325.008 1108.75 326.33 1114.04 327.392ZM458.855 327.151H459.277V327.332C459.81 327.385 460.343 327.225 460.757 326.887C461.172 326.548 461.435 326.06 461.488 325.529C461.541 324.997 461.381 324.467 461.042 324.054C460.702 323.64 460.212 323.378 459.679 323.325C454.514 322.223 449.35 320.881 444.325 319.319C443.816 319.159 443.265 319.208 442.792 319.454C442.319 319.7 441.963 320.124 441.803 320.631C441.643 321.138 441.692 321.688 441.939 322.16C442.186 322.631 442.61 322.986 443.119 323.145C448.264 324.687 453.57 326.05 458.855 327.151ZM537.971 323.941C538.229 324.008 538.497 324.023 538.761 323.986H538.681C538.909 323.971 539.134 323.917 539.344 323.826C544.509 322.304 549.694 320.501 554.698 318.497C555.16 318.277 555.519 317.89 555.704 317.414C555.889 316.939 555.885 316.411 555.693 315.938C555.501 315.465 555.135 315.084 554.67 314.87C554.205 314.657 553.676 314.629 553.191 314.792C548.247 316.755 543.263 318.497 538.198 319.98C537.935 320.017 537.68 320.105 537.451 320.24C537.221 320.374 537.02 320.553 536.86 320.765C536.699 320.977 536.582 321.218 536.515 321.476C536.449 321.733 536.433 322 536.47 322.264C536.507 322.527 536.596 322.78 536.731 323.009C536.866 323.238 537.045 323.438 537.258 323.598C537.471 323.758 537.713 323.874 537.971 323.941ZM1193.13 323.604C1193.39 323.67 1193.66 323.684 1193.92 323.646H1193.86C1194.09 323.628 1194.3 323.574 1194.51 323.485C1199.67 321.923 1204.84 320.04 1209.84 318.037C1210.33 317.833 1210.72 317.445 1210.92 316.957C1211.12 316.47 1211.13 315.922 1210.93 315.433C1210.83 315.187 1210.68 314.964 1210.49 314.775C1210.31 314.587 1210.09 314.437 1209.84 314.335C1209.6 314.232 1209.33 314.179 1209.07 314.178C1208.8 314.178 1208.54 314.23 1208.29 314.331C1203.41 316.359 1198.41 318.131 1193.34 319.639C1193.08 319.677 1192.82 319.767 1192.59 319.903C1192.37 320.039 1192.17 320.218 1192.01 320.431C1191.85 320.644 1191.73 320.887 1191.66 321.144C1191.6 321.402 1191.58 321.67 1191.62 321.933C1191.66 322.196 1191.75 322.449 1191.89 322.677C1192.02 322.906 1192.2 323.105 1192.42 323.264C1192.63 323.423 1192.87 323.539 1193.13 323.604ZM1082.99 317.897C1083.23 317.995 1083.49 318.05 1083.75 318.057C1084.22 318.068 1084.68 317.913 1085.05 317.619C1085.42 317.326 1085.68 316.912 1085.77 316.451C1085.86 315.99 1085.79 315.511 1085.56 315.097C1085.34 314.684 1084.98 314.363 1084.54 314.191C1079.69 312.187 1074.87 309.884 1070.21 307.4C1069.74 307.15 1069.19 307.094 1068.68 307.244C1068.18 307.394 1067.75 307.738 1067.49 308.201C1067.37 308.432 1067.29 308.687 1067.26 308.949C1067.23 309.211 1067.25 309.477 1067.33 309.73C1067.4 309.983 1067.53 310.219 1067.69 310.424C1067.86 310.629 1068.06 310.8 1068.3 310.925C1073.08 313.469 1078.02 315.893 1082.99 317.897ZM427.806 317.436C428.053 317.541 428.32 317.596 428.589 317.596H428.67C429.133 317.595 429.581 317.435 429.939 317.143C430.297 316.85 430.543 316.444 430.635 315.992C430.727 315.539 430.66 315.069 430.445 314.661C430.229 314.253 429.879 313.931 429.453 313.75C424.584 311.685 419.822 309.379 415.185 306.839C414.954 306.707 414.699 306.622 414.435 306.589C414.171 306.556 413.903 306.574 413.647 306.644C413.39 306.714 413.15 306.833 412.94 306.995C412.729 307.158 412.553 307.36 412.421 307.59C412.289 307.82 412.204 308.074 412.171 308.337C412.137 308.6 412.156 308.867 412.226 309.123C412.296 309.379 412.416 309.618 412.578 309.828C412.741 310.037 412.944 310.213 413.175 310.344C417.898 312.929 422.821 315.312 427.806 317.436ZM567.418 311.697C567.729 311.885 568.085 311.985 568.448 311.987C568.447 311.987 568.446 311.987 568.445 311.987H568.456C568.454 311.987 568.451 311.987 568.448 311.987C568.762 311.984 569.07 311.909 569.349 311.767C574.172 309.263 578.895 306.498 583.417 303.534C583.638 303.388 583.828 303.2 583.976 302.981C584.123 302.763 584.227 302.517 584.279 302.258C584.331 301.999 584.332 301.733 584.28 301.474C584.229 301.215 584.127 300.969 583.979 300.749C583.685 300.31 583.228 300.005 582.709 299.9C582.189 299.795 581.649 299.898 581.206 300.188C576.785 303.073 572.183 305.777 567.52 308.201C567.048 308.448 566.695 308.872 566.536 309.379C566.378 309.886 566.428 310.435 566.676 310.905C566.846 311.232 567.102 311.506 567.418 311.697ZM1222.37 311.03C1222.72 311.294 1223.14 311.44 1223.57 311.446H1223.53C1223.85 311.476 1224.17 311.428 1224.47 311.306C1229.34 308.762 1234.04 305.957 1238.54 302.973C1238.76 302.826 1238.95 302.637 1239.09 302.417C1239.24 302.198 1239.34 301.951 1239.39 301.693C1239.44 301.434 1239.44 301.168 1239.39 300.91C1239.33 300.652 1239.23 300.406 1239.08 300.188C1238.78 299.752 1238.33 299.451 1237.81 299.35C1237.29 299.249 1236.75 299.355 1236.31 299.647C1231.91 302.452 1227.33 305.196 1222.68 307.66C1222.28 307.866 1221.96 308.202 1221.77 308.614C1221.58 309.025 1221.54 309.488 1221.65 309.927C1221.76 310.365 1222.01 310.754 1222.37 311.03ZM1054.41 302.532C1054.74 302.753 1055.13 302.872 1055.53 302.872H1055.44C1055.78 302.89 1056.13 302.818 1056.44 302.664C1056.75 302.509 1057.01 302.277 1057.2 301.991C1057.35 301.773 1057.46 301.528 1057.51 301.269C1057.56 301.011 1057.56 300.745 1057.51 300.487C1057.46 300.228 1057.36 299.982 1057.21 299.762C1057.07 299.543 1056.88 299.354 1056.66 299.207C1052.27 296.269 1048.02 293.113 1043.94 289.751C1043.53 289.452 1043.01 289.322 1042.51 289.386C1042 289.451 1041.54 289.706 1041.21 290.099C1040.88 290.492 1040.72 290.994 1040.76 291.503C1040.79 292.011 1041.01 292.488 1041.39 292.836C1045.55 296.262 1049.93 299.527 1054.41 302.532ZM399.388 301.871C399.721 302.094 400.113 302.212 400.514 302.211C400.941 302.21 401.357 302.074 401.701 301.821C402.045 301.569 402.299 301.213 402.427 300.807C402.555 300.401 402.549 299.964 402.411 299.561C402.273 299.158 402.01 298.809 401.659 298.566C397.298 295.601 393.018 292.376 388.998 289.01C388.8 288.819 388.564 288.67 388.305 288.574C388.047 288.478 387.771 288.435 387.495 288.45C387.219 288.464 386.95 288.535 386.703 288.658C386.456 288.781 386.237 288.954 386.06 289.165C385.882 289.376 385.751 289.621 385.673 289.885C385.595 290.149 385.573 290.426 385.607 290.7C385.641 290.973 385.732 291.236 385.873 291.472C386.013 291.709 386.202 291.914 386.426 292.075C390.566 295.541 394.927 298.826 399.388 301.871ZM594.497 294.221C594.765 294.35 595.058 294.417 595.354 294.419H595.254C595.514 294.447 595.777 294.421 596.027 294.342C596.276 294.262 596.505 294.132 596.701 293.958C600.821 290.593 604.921 286.947 608.759 283.181C609.14 282.809 609.357 282.302 609.363 281.77C609.369 281.238 609.162 280.726 608.789 280.346C608.416 279.967 607.907 279.75 607.374 279.744C606.84 279.739 606.327 279.945 605.946 280.316C602.147 284.002 598.128 287.548 594.108 290.853C593.902 291.019 593.73 291.223 593.603 291.455C593.476 291.686 593.397 291.941 593.369 292.203C593.341 292.466 593.365 292.731 593.44 292.984C593.515 293.237 593.64 293.473 593.807 293.678C593.994 293.908 594.23 294.093 594.497 294.221ZM1249.47 293.484C1249.74 293.611 1250.03 293.677 1250.32 293.678H1250.24C1250.73 293.698 1251.22 293.534 1251.6 293.217C1255.78 289.812 1259.84 286.146 1263.66 282.34C1264.04 281.965 1264.25 281.456 1264.26 280.924C1264.26 280.393 1264.05 279.882 1263.67 279.505C1263.3 279.128 1262.78 278.915 1262.25 278.913C1261.72 278.911 1261.21 279.121 1260.83 279.495C1257.09 283.221 1253.07 286.787 1249.05 290.112C1248.85 290.279 1248.68 290.484 1248.55 290.717C1248.43 290.949 1248.35 291.204 1248.32 291.466C1248.3 291.729 1248.32 291.993 1248.4 292.246C1248.47 292.498 1248.6 292.733 1248.77 292.937C1248.96 293.169 1249.2 293.356 1249.47 293.484ZM1030.03 282.351C1030.26 282.448 1030.52 282.498 1030.77 282.5H1030.7C1030.98 282.518 1031.26 282.477 1031.52 282.38C1031.78 282.284 1032.02 282.133 1032.22 281.939C1032.6 281.564 1032.81 281.056 1032.81 280.527C1032.81 279.998 1032.6 279.49 1032.22 279.114C1028.51 275.368 1024.93 271.362 1021.59 267.356C1021.25 266.944 1020.77 266.683 1020.23 266.63C1019.7 266.578 1019.17 266.738 1018.76 267.075C1018.35 267.413 1018.08 267.9 1018.03 268.429C1017.98 268.959 1018.14 269.488 1018.48 269.9C1021.89 274.046 1025.55 278.093 1029.37 281.919C1029.56 282.105 1029.78 282.251 1030.03 282.351ZM375.141 281.501C375.386 281.604 375.649 281.657 375.915 281.659V281.759C376.31 281.757 376.696 281.639 377.024 281.42C377.353 281.201 377.609 280.891 377.761 280.528C377.913 280.164 377.955 279.764 377.88 279.377C377.806 278.991 377.618 278.634 377.342 278.353C373.664 274.547 370.107 270.541 366.811 266.534C366.645 266.329 366.44 266.158 366.208 266.031C365.975 265.904 365.72 265.825 365.457 265.797C365.194 265.769 364.927 265.793 364.673 265.868C364.419 265.943 364.183 266.067 363.977 266.234C363.566 266.567 363.304 267.049 363.247 267.574C363.191 268.1 363.345 268.626 363.676 269.038C367.073 273.225 370.681 277.237 374.488 281.058C374.674 281.247 374.896 281.397 375.141 281.501ZM617.105 271.672C617.428 271.876 617.802 271.984 618.185 271.983C618.48 271.984 618.772 271.919 619.039 271.795C619.307 271.67 619.543 271.488 619.732 271.262C623.189 267.115 626.485 262.768 629.519 258.321C629.82 257.883 629.935 257.343 629.837 256.821C629.739 256.299 629.437 255.837 628.997 255.537C628.557 255.237 628.016 255.123 627.492 255.221C626.968 255.318 626.504 255.619 626.203 256.058C623.23 260.429 620.037 264.648 616.637 268.698C616.393 268.991 616.237 269.347 616.188 269.725C616.139 270.102 616.2 270.486 616.362 270.831C616.525 271.176 616.782 271.468 617.105 271.672ZM1271.66 270.581C1272.02 270.872 1272.48 271.028 1272.95 271.022C1273.24 271.022 1273.53 270.958 1273.8 270.833C1274.07 270.708 1274.3 270.527 1274.49 270.3C1277.95 266.125 1281.19 261.78 1284.2 257.28C1284.49 256.84 1284.6 256.304 1284.5 255.786C1284.4 255.269 1284.09 254.812 1283.66 254.515C1283.44 254.367 1283.19 254.264 1282.93 254.212C1282.67 254.159 1282.41 254.158 1282.15 254.208C1281.89 254.258 1281.64 254.359 1281.42 254.504C1281.2 254.65 1281.01 254.837 1280.86 255.056C1277.93 259.423 1274.75 263.75 1271.4 267.756C1271.23 267.959 1271.1 268.192 1271.02 268.444C1270.94 268.696 1270.92 268.96 1270.94 269.223C1270.97 269.485 1271.04 269.74 1271.16 269.973C1271.29 270.206 1271.46 270.413 1271.66 270.581ZM1009.44 257.452C1009.74 257.605 1010.07 257.684 1010.4 257.68C1010.76 257.678 1011.11 257.579 1011.42 257.393C1011.73 257.207 1011.99 256.941 1012.16 256.623C1012.33 256.305 1012.41 255.947 1012.4 255.586C1012.38 255.226 1012.27 254.876 1012.07 254.575C1009.13 250.186 1006.41 245.654 1003.93 240.993C1003.81 240.743 1003.65 240.518 1003.45 240.333C1003.24 240.148 1003 240.007 1002.74 239.918C1002.48 239.829 1002.21 239.795 1001.93 239.817C1001.66 239.839 1001.39 239.918 1001.15 240.047C1000.9 240.176 1000.69 240.354 1000.52 240.569C1000.35 240.784 1000.22 241.032 1000.15 241.298C1000.08 241.563 1000.07 241.84 1000.11 242.112C1000.15 242.383 1000.24 242.644 1000.39 242.876C1002.92 247.624 1005.72 252.312 1008.71 256.799C1008.9 257.073 1009.15 257.298 1009.44 257.452ZM354.739 256.461C355.033 256.619 355.363 256.7 355.697 256.699L355.717 256.659C356.079 256.657 356.434 256.557 356.744 256.371C357.054 256.185 357.308 255.919 357.479 255.601C357.65 255.283 357.731 254.925 357.715 254.564C357.698 254.204 357.585 253.855 357.386 253.554C354.471 249.147 351.778 244.559 349.347 239.912C349.099 239.439 348.673 239.084 348.162 238.924C347.651 238.764 347.098 238.813 346.624 239.06C346.149 239.307 345.793 239.732 345.633 240.241C345.472 240.75 345.522 241.302 345.769 241.775C348.261 246.562 351.035 251.27 354.009 255.797C354.193 256.076 354.444 256.304 354.739 256.461ZM635.307 245.28C635.604 245.44 635.935 245.522 636.272 245.521C636.633 245.522 636.989 245.425 637.3 245.242C637.611 245.059 637.867 244.795 638.041 244.479C640.613 239.751 643.004 234.844 645.115 229.876C645.24 229.63 645.313 229.361 645.329 229.086C645.345 228.811 645.304 228.536 645.209 228.278C645.113 228.019 644.966 227.783 644.775 227.584C644.583 227.385 644.353 227.227 644.098 227.121C643.844 227.015 643.569 226.962 643.293 226.966C643.017 226.97 642.744 227.031 642.493 227.145C642.241 227.258 642.016 227.423 641.83 227.627C641.645 227.832 641.505 228.072 641.417 228.333C639.347 233.161 637.036 237.949 634.503 242.556C634.376 242.787 634.296 243.041 634.267 243.304C634.239 243.566 634.263 243.832 634.337 244.085C634.412 244.338 634.536 244.574 634.703 244.779C634.869 244.984 635.075 245.155 635.307 245.28ZM1289.88 244.238C1290.18 244.408 1290.52 244.498 1290.86 244.499H1290.81C1291.19 244.509 1291.55 244.415 1291.88 244.228C1292.2 244.04 1292.47 243.766 1292.64 243.437C1295.19 238.69 1297.6 233.762 1299.61 228.794C1299.74 228.548 1299.81 228.28 1299.83 228.005C1299.84 227.73 1299.8 227.454 1299.71 227.196C1299.61 226.937 1299.47 226.701 1299.27 226.502C1299.08 226.303 1298.85 226.146 1298.6 226.039C1298.34 225.933 1298.07 225.88 1297.79 225.884C1297.52 225.888 1297.24 225.949 1296.99 226.063C1296.74 226.177 1296.52 226.341 1296.33 226.545C1296.15 226.75 1296 226.99 1295.92 227.251C1293.89 232.099 1291.6 236.907 1289.1 241.534C1288.94 241.84 1288.85 242.184 1288.86 242.532C1288.86 242.88 1288.96 243.22 1289.14 243.52C1289.32 243.819 1289.57 244.067 1289.88 244.238ZM994.321 229.139C994.648 229.356 995.033 229.473 995.426 229.475H995.325C995.627 229.495 995.929 229.447 996.21 229.335C996.454 229.234 996.676 229.086 996.863 228.899C997.05 228.713 997.198 228.491 997.299 228.247C997.4 228.004 997.451 227.742 997.451 227.479C997.45 227.215 997.397 226.954 997.295 226.711C995.305 221.823 993.517 216.835 992.009 211.807C991.934 211.554 991.808 211.318 991.641 211.114C991.473 210.909 991.267 210.74 991.033 210.615C990.8 210.49 990.544 210.413 990.28 210.387C990.017 210.361 989.751 210.388 989.497 210.465C988.989 210.618 988.563 210.965 988.31 211.43C988.058 211.895 988.001 212.441 988.151 212.949C989.698 218.217 991.567 223.265 993.577 228.233C993.729 228.602 993.988 228.917 994.321 229.139ZM339.721 228.037C340.054 228.258 340.445 228.375 340.846 228.373C341.107 228.376 341.366 228.329 341.609 228.233C342.102 228.033 342.495 227.647 342.702 227.159C342.909 226.67 342.914 226.12 342.715 225.629C340.735 220.738 339.005 215.75 337.53 210.685C337.456 210.432 337.333 210.197 337.167 209.992C337.002 209.787 336.798 209.616 336.567 209.489C336.335 209.363 336.081 209.283 335.819 209.255C335.556 209.226 335.291 209.249 335.038 209.323C334.784 209.396 334.548 209.519 334.342 209.684C334.136 209.849 333.965 210.052 333.838 210.283C333.711 210.513 333.631 210.767 333.603 211.028C333.574 211.29 333.597 211.554 333.671 211.807C335.178 216.975 336.967 222.123 338.977 227.131C339.129 227.5 339.388 227.816 339.721 228.037ZM648.744 216.075C648.547 216.104 648.346 216.103 648.149 216.074C647.64 215.917 647.215 215.565 646.966 215.095C646.717 214.626 646.666 214.077 646.823 213.57C648.422 208.539 649.763 203.431 650.842 198.265C650.895 198.002 650.999 197.752 651.149 197.529C651.299 197.306 651.491 197.115 651.715 196.966C651.939 196.817 652.19 196.714 652.454 196.662C652.718 196.61 652.99 196.61 653.254 196.663C653.518 196.715 653.769 196.819 653.992 196.968C654.216 197.118 654.408 197.309 654.557 197.533C654.707 197.756 654.81 198.006 654.863 198.269C654.915 198.532 654.914 198.803 654.862 199.066C653.776 204.335 652.41 209.623 650.842 214.752C650.691 215.176 650.401 215.538 650.018 215.778C649.638 216.016 649.19 216.12 648.744 216.075ZM1302.55 214.832C1302.74 214.896 1302.93 214.929 1303.13 214.932C1303.56 214.929 1303.98 214.789 1304.32 214.533C1304.66 214.277 1304.92 213.919 1305.04 213.51C1306.67 208.341 1307.99 203.053 1309.06 197.764C1309.16 197.233 1309.05 196.683 1308.74 196.236C1308.44 195.789 1307.97 195.481 1307.43 195.381C1306.9 195.28 1306.35 195.394 1305.9 195.698C1305.45 196.002 1305.14 196.472 1305.04 197.003C1304.02 202.151 1302.73 207.32 1301.2 212.348C1301.05 212.855 1301.11 213.401 1301.36 213.866C1301.61 214.332 1302.04 214.679 1302.55 214.832ZM984.82 198.46C985.187 198.757 985.648 198.915 986.121 198.906C986.242 198.916 986.364 198.91 986.483 198.886C987.005 198.784 987.465 198.48 987.762 198.041C988.06 197.602 988.171 197.063 988.07 196.542C987.066 191.394 986.302 186.126 985.819 180.897C985.771 180.366 985.514 179.876 985.103 179.534C984.692 179.192 984.162 179.027 983.629 179.074C983.096 179.122 982.604 179.379 982.261 179.789C982.091 179.991 981.963 180.225 981.884 180.478C981.805 180.73 981.776 180.995 981.8 181.258C982.302 186.606 983.086 192.015 984.111 197.284C984.201 197.747 984.452 198.163 984.82 198.46ZM330.541 197.298C330.908 197.595 331.369 197.753 331.842 197.744L332.184 197.764C332.444 197.716 332.692 197.617 332.914 197.473C333.136 197.329 333.327 197.143 333.476 196.925C333.626 196.708 333.73 196.463 333.785 196.204C333.839 195.946 333.841 195.68 333.792 195.421C332.827 190.252 332.103 184.984 331.641 179.735C331.595 179.207 331.341 178.719 330.934 178.377C330.527 178.035 330.001 177.868 329.471 177.913C329.206 177.935 328.949 178.01 328.714 178.132C328.479 178.254 328.27 178.422 328.1 178.625C327.93 178.828 327.802 179.062 327.723 179.315C327.645 179.567 327.617 179.833 327.642 180.096C328.104 185.425 328.848 190.833 329.833 196.122C329.922 196.585 330.173 197.001 330.541 197.298ZM654.982 184.824H655.203V184.743C655.688 184.743 656.155 184.569 656.521 184.253C656.887 183.936 657.125 183.499 657.193 183.021C657.756 177.692 658.097 172.243 658.097 166.835C658.097 166.304 657.886 165.794 657.509 165.418C657.132 165.043 656.621 164.832 656.088 164.832C655.555 164.832 655.043 165.043 654.667 165.418C654.29 165.794 654.078 166.304 654.078 166.835C654.038 172.103 653.736 177.412 653.194 182.62C653.166 182.882 653.19 183.147 653.265 183.399C653.34 183.651 653.464 183.887 653.63 184.091C653.796 184.296 654.001 184.466 654.233 184.592C654.465 184.717 654.72 184.796 654.982 184.824ZM1309.16 183.642H1309.36V183.562C1309.85 183.562 1310.31 183.387 1310.68 183.071C1311.04 182.754 1311.28 182.317 1311.35 181.839C1311.87 176.49 1312.16 171.042 1312.16 165.653C1312.16 165.122 1311.94 164.612 1311.57 164.236C1311.19 163.861 1310.68 163.65 1310.15 163.65C1309.61 163.65 1309.1 163.861 1308.72 164.236C1308.35 164.612 1308.14 165.122 1308.14 165.653C1308.14 170.921 1307.87 176.23 1307.35 181.438C1307.32 181.702 1307.35 181.968 1307.43 182.221C1307.5 182.475 1307.63 182.711 1307.8 182.916C1307.96 183.121 1308.17 183.291 1308.4 183.415C1308.64 183.54 1308.9 183.617 1309.16 183.642ZM981.685 166.388C982.062 166.764 982.573 166.975 983.106 166.975V166.955C983.639 166.955 984.151 166.744 984.527 166.368C984.904 165.993 985.116 165.483 985.116 164.952C985.096 159.563 984.815 154.114 984.272 148.766C984.216 148.241 983.955 147.759 983.545 147.425C983.134 147.092 982.609 146.933 982.081 146.983C981.551 147.034 981.063 147.292 980.724 147.702C980.385 148.111 980.222 148.638 980.273 149.167C980.815 154.375 981.097 159.703 981.097 164.972C981.097 165.503 981.308 166.013 981.685 166.388ZM327.648 165.206C328.025 165.582 328.536 165.793 329.069 165.793V165.753C329.602 165.753 330.113 165.542 330.49 165.166C330.867 164.791 331.079 164.281 331.079 163.75C331.018 158.361 330.697 152.913 330.114 147.584C330.086 147.322 330.007 147.068 329.881 146.837C329.755 146.606 329.585 146.401 329.379 146.236C329.174 146.07 328.938 145.947 328.685 145.872C328.431 145.798 328.166 145.773 327.903 145.801C327.641 145.829 327.386 145.908 327.154 146.033C326.922 146.159 326.717 146.329 326.551 146.533C326.385 146.738 326.261 146.973 326.186 147.226C326.111 147.478 326.087 147.743 326.115 148.005C326.677 153.213 327.059 158.522 327.059 163.79C327.059 164.321 327.271 164.831 327.648 165.206ZM2.45195 153.934H2.61272C3.12683 153.969 3.63455 153.805 4.031 153.477C4.42745 153.149 4.68233 152.681 4.74301 152.171C5.10476 146.923 5.80815 141.655 6.75271 136.486C6.84865 135.955 6.72893 135.407 6.41988 134.964C6.11083 134.521 5.63776 134.218 5.10476 134.123C4.57175 134.027 4.02246 134.146 3.57773 134.454C3.133 134.762 2.82925 135.234 2.73331 135.765C1.76865 140.993 1.04516 146.402 0.603022 151.791C0.564226 152.319 0.736985 152.841 1.0835 153.243C1.43001 153.645 1.92205 153.893 2.45195 153.934ZM656.57 152.832H656.771C657.281 152.85 657.779 152.674 658.164 152.339C658.548 152.004 658.79 151.536 658.841 151.03C659.323 145.781 660.047 140.513 661.031 135.364C661.08 135.101 661.077 134.831 661.021 134.57C660.965 134.308 660.858 134.06 660.706 133.839C660.554 133.619 660.359 133.431 660.134 133.285C659.909 133.139 659.657 133.039 659.394 132.991C659.13 132.942 658.859 132.946 658.596 133.001C658.334 133.057 658.085 133.164 657.864 133.315C657.643 133.467 657.453 133.661 657.307 133.885C657.161 134.109 657.061 134.36 657.012 134.623C656.007 139.872 655.244 145.28 654.761 150.649C654.711 151.178 654.873 151.704 655.212 152.114C655.551 152.523 656.04 152.782 656.57 152.832ZM978.63 134.718C978.997 135.015 979.458 135.173 979.931 135.164L980.273 135.124C980.533 135.074 980.781 134.973 981.002 134.826C981.223 134.68 981.413 134.492 981.561 134.272C981.708 134.052 981.811 133.805 981.862 133.546C981.914 133.287 981.913 133.02 981.86 132.76C980.775 127.492 979.429 122.203 977.841 117.035C977.77 116.777 977.647 116.535 977.48 116.324C977.313 116.114 977.105 115.939 976.869 115.81C976.633 115.681 976.373 115.601 976.106 115.574C975.838 115.547 975.568 115.574 975.31 115.653C975.053 115.732 974.815 115.862 974.609 116.035C974.403 116.208 974.234 116.42 974.112 116.659C973.99 116.898 973.917 117.159 973.899 117.427C973.88 117.695 973.915 117.963 974.002 118.217C975.55 123.245 976.876 128.413 977.921 133.542C978.011 134.005 978.262 134.421 978.63 134.718ZM324.296 133.564C324.663 133.857 325.122 134.012 325.592 134.002L325.853 133.962C326.112 133.908 326.358 133.802 326.576 133.653C326.794 133.503 326.98 133.312 327.124 133.091C327.268 132.869 327.366 132.622 327.414 132.362C327.461 132.103 327.457 131.836 327.401 131.578C326.396 126.31 325.009 121.042 323.381 115.893C323.315 115.627 323.194 115.377 323.027 115.159C322.86 114.942 322.649 114.76 322.409 114.627C322.169 114.493 321.903 114.41 321.629 114.383C321.355 114.356 321.079 114.386 320.817 114.469C320.555 114.553 320.313 114.69 320.106 114.871C319.899 115.052 319.731 115.273 319.614 115.521C319.496 115.769 319.431 116.039 319.422 116.313C319.414 116.587 319.461 116.86 319.563 117.115C321.151 122.123 322.517 127.272 323.582 132.4C323.676 132.859 323.929 133.271 324.296 133.564ZM7.83795 122.464C8.01764 122.493 8.20088 122.493 8.38057 122.464C8.80871 122.473 9.22874 122.346 9.57941 122.101C9.93008 121.856 10.1931 121.506 10.33 121.102C11.7845 116.031 13.4949 111.037 15.4547 106.138C15.6519 105.644 15.6442 105.092 15.4331 104.603C15.222 104.115 14.825 103.73 14.3293 103.534C13.8336 103.337 13.2799 103.345 12.7899 103.555C12.2999 103.766 11.9139 104.161 11.7167 104.655C9.72707 109.643 7.95853 114.812 6.45126 119.98C6.37774 120.234 6.35532 120.5 6.38531 120.762C6.4153 121.025 6.4971 121.279 6.62599 121.51C6.75488 121.74 6.92832 121.944 7.13632 122.107C7.34432 122.271 7.58278 122.392 7.83795 122.464ZM662.197 121.322C662.384 121.351 662.573 121.351 662.76 121.322C663.182 121.329 663.596 121.203 663.942 120.962C664.288 120.721 664.55 120.377 664.689 119.98C666.176 114.932 667.925 109.924 669.934 105.036C670.053 104.789 670.119 104.521 670.13 104.248C670.141 103.975 670.095 103.702 669.996 103.447C669.897 103.192 669.746 102.96 669.554 102.766C669.361 102.571 669.131 102.417 668.877 102.315C668.623 102.212 668.35 102.162 668.076 102.168C667.802 102.175 667.532 102.237 667.282 102.351C667.033 102.465 666.81 102.629 666.627 102.832C666.443 103.036 666.304 103.274 666.216 103.534C664.161 108.541 662.364 113.649 660.831 118.838C660.681 119.348 660.741 119.896 660.998 120.362C661.254 120.828 661.685 121.173 662.197 121.322ZM969.336 104.242C969.665 104.459 970.051 104.575 970.445 104.575C970.756 104.574 971.061 104.491 971.33 104.335C971.574 104.234 971.796 104.086 971.983 103.899C972.17 103.713 972.318 103.491 972.419 103.247C972.52 103.004 972.571 102.742 972.571 102.479C972.57 102.215 972.517 101.954 972.415 101.711C970.325 96.7627 967.953 91.8349 965.381 87.0873C965.114 86.6197 964.672 86.2769 964.152 86.1341C963.632 85.9914 963.077 86.0604 962.607 86.326C962.138 86.5917 961.794 87.0322 961.651 87.5506C961.508 88.069 961.577 88.6229 961.844 89.0905C964.336 93.7276 966.589 98.488 968.596 103.353C968.75 103.715 969.008 104.024 969.336 104.242ZM314.837 103.16C315.165 103.377 315.551 103.493 315.945 103.493C316.215 103.493 316.481 103.438 316.729 103.333C316.974 103.231 317.197 103.08 317.383 102.892C317.57 102.703 317.717 102.479 317.816 102.233C317.915 101.987 317.964 101.724 317.96 101.459C317.957 101.194 317.9 100.932 317.794 100.689C315.664 95.7611 313.273 90.8533 310.66 86.1257C310.532 85.8955 310.36 85.6926 310.153 85.5287C309.947 85.3648 309.71 85.2431 309.456 85.1705C309.202 85.098 308.936 85.076 308.674 85.1058C308.412 85.1357 308.158 85.2168 307.927 85.3445C307.466 85.6019 307.125 86.0301 306.978 86.5363C306.831 87.0425 306.891 87.5859 307.143 88.0488C309.675 92.6762 312.087 97.4438 314.097 102.272C314.25 102.634 314.508 102.943 314.837 103.16ZM19.3335 92.5159C19.6195 92.662 19.9365 92.7376 20.2579 92.7363C20.6187 92.7243 20.9696 92.6157 21.2738 92.4218C21.5779 92.2279 21.824 91.956 21.9863 91.6345C24.4582 86.9871 27.1512 82.3797 30.0251 77.9727C30.1689 77.7517 30.2677 77.5046 30.3157 77.2456C30.3638 76.9866 30.3602 76.7207 30.3051 76.4631C30.2501 76.2054 30.1446 75.9611 29.9949 75.7441C29.8451 75.5271 29.6539 75.3416 29.4322 75.1982C29.2105 75.0549 28.9627 74.9564 28.7028 74.9085C28.4429 74.8606 28.1762 74.8642 27.9177 74.9191C27.6592 74.974 27.4141 75.0791 27.1964 75.2283C26.9787 75.3776 26.7926 75.5682 26.6488 75.7892C23.7146 80.3365 20.9613 85.044 18.4693 89.8116C18.3474 90.0456 18.273 90.3013 18.2505 90.5641C18.228 90.8268 18.2577 91.0914 18.338 91.3426C18.4183 91.5939 18.5475 91.8269 18.7184 92.0282C18.8892 92.2296 19.0982 92.3953 19.3335 92.5159ZM673.863 91.4402C674.167 91.6095 674.51 91.6972 674.858 91.6946C675.237 91.6936 675.608 91.5858 675.928 91.3838C676.248 91.1817 676.504 90.8937 676.667 90.5528C679.099 85.9054 681.812 81.318 684.706 76.931C684.853 76.7116 684.955 76.4653 685.007 76.2064C685.058 75.9474 685.057 75.6809 685.005 75.4222C684.953 75.1634 684.85 74.9175 684.702 74.6986C684.554 74.4797 684.364 74.2921 684.143 74.1466C683.922 74.0008 683.674 73.9002 683.413 73.8505C683.153 73.8008 682.885 73.803 682.625 73.857C682.365 73.911 682.119 74.0158 681.9 74.1652C681.681 74.3146 681.494 74.5057 681.35 74.7275C678.375 79.2948 675.602 84.0023 673.07 88.7499C672.906 89.0563 672.825 89.3997 672.835 89.7466C672.844 90.0936 672.944 90.4321 673.124 90.729C673.305 91.0259 673.559 91.271 673.863 91.4402ZM954.247 76.1969C954.538 76.3506 954.862 76.4307 955.192 76.4302C955.592 76.4311 955.984 76.3125 956.317 76.0897C956.757 75.7895 957.059 75.3275 957.157 74.8053C957.255 74.2831 957.141 73.7435 956.84 73.3052C953.81 68.8255 950.557 64.4998 947.093 60.3445C946.743 59.9722 946.265 59.7466 945.755 59.7137C945.244 59.6808 944.741 59.843 944.346 60.1672C943.951 60.4915 943.696 60.9535 943.631 61.4591C943.566 61.9647 943.697 62.4759 943.998 62.8885C947.354 66.935 950.549 71.1818 953.524 75.5488C953.708 75.8206 953.956 76.0432 954.247 76.1969ZM299.526 75.2354C299.817 75.389 300.142 75.4692 300.471 75.4687C300.881 75.4677 301.28 75.3419 301.616 75.1081C302.053 74.8048 302.351 74.3414 302.445 73.8194C302.539 73.2974 302.422 72.7595 302.119 72.3236C299.054 67.8623 295.768 63.5567 292.271 59.423C292.101 59.2218 291.893 59.0559 291.658 58.9349C291.424 58.8139 291.167 58.7402 290.904 58.7178C290.641 58.6955 290.376 58.7251 290.125 58.8048C289.873 58.8846 289.639 59.0129 289.437 59.1826C289.236 59.3523 289.069 59.5599 288.948 59.7937C288.826 60.0275 288.752 60.2828 288.73 60.5451C288.708 60.8074 288.737 61.0715 288.817 61.3223C288.897 61.5732 289.026 61.8059 289.196 62.0071C292.608 66.0377 295.814 70.2364 298.803 74.5873C298.987 74.8591 299.236 75.0817 299.526 75.2354ZM36.4963 65.4727C36.8499 65.7554 37.289 65.9108 37.7423 65.9134C38.0426 65.9144 38.3392 65.8484 38.6105 65.7201C38.8818 65.5918 39.1207 65.4046 39.3099 65.1722C42.6058 61.0656 46.1429 57.0792 49.8206 53.3132C50.1911 52.9307 50.3939 52.4172 50.3845 51.8856C50.375 51.354 50.1542 50.8479 49.7704 50.4787C49.3866 50.1094 48.8714 49.9073 48.3381 49.9167C47.8048 49.9261 47.2971 50.1462 46.9267 50.5288C43.1685 54.3749 39.5511 58.4615 36.1748 62.6882C35.8524 63.1021 35.7055 63.6253 35.7656 64.1458C35.8257 64.6664 36.088 65.1427 36.4963 65.4727ZM691.476 64.6774C691.795 64.8804 692.165 64.9894 692.544 64.9919C692.834 64.9998 693.123 64.9448 693.39 64.8307C693.657 64.7166 693.896 64.546 694.091 64.3308C697.418 60.2273 700.953 56.2959 704.682 52.552C704.871 52.3658 705.02 52.1442 705.122 51.9001C705.224 51.656 705.277 51.3942 705.277 51.1297C705.277 50.8653 705.224 50.6035 705.122 50.3593C705.02 50.1152 704.871 49.8937 704.682 49.7075C704.306 49.3344 703.796 49.1249 703.265 49.1249C702.734 49.1249 702.225 49.3344 701.849 49.7075C698.05 53.4735 694.393 57.54 690.996 61.7267C690.758 62.0197 690.607 62.374 690.562 62.7487C690.516 63.1233 690.578 63.5032 690.74 63.8444C690.901 64.1856 691.157 64.4743 691.476 64.6774ZM933.306 51.2299C933.677 51.5964 934.176 51.8045 934.697 51.8107C934.696 51.8107 934.694 51.8108 934.693 51.8108H934.713C934.708 51.8108 934.703 51.8108 934.697 51.8107C935.219 51.7967 935.714 51.5813 936.079 51.2099C936.454 50.8345 936.664 50.3268 936.664 49.7976C936.664 49.2684 936.454 48.7607 936.079 48.3853C932.281 44.5792 928.221 40.9334 924.021 37.548C923.61 37.2159 923.083 37.0591 922.557 37.1116C922.03 37.1641 921.545 37.4217 921.208 37.8284C921.04 38.0321 920.913 38.2668 920.837 38.5192C920.76 38.7715 920.734 39.0365 920.76 39.2989C920.786 39.5614 920.864 39.8161 920.989 40.0484C921.114 40.2808 921.284 40.4862 921.489 40.653C925.569 43.9583 929.548 47.524 933.306 51.2299ZM278.424 50.4086C278.802 50.7713 279.307 50.9726 279.831 50.9695H279.811C280.077 50.9684 280.34 50.9147 280.585 50.8115C280.83 50.7084 281.052 50.5578 281.238 50.3685C281.612 49.9932 281.822 49.4855 281.822 48.9563C281.822 48.427 281.612 47.9193 281.238 47.544C277.359 43.778 273.259 40.1522 269.059 36.7868C268.854 36.6125 268.617 36.4811 268.36 36.4002C268.103 36.3193 267.833 36.2906 267.565 36.3159C267.297 36.3411 267.037 36.4198 266.8 36.5472C266.563 36.6746 266.354 36.8482 266.186 37.0576C266.017 37.267 265.893 37.5079 265.82 37.7662C265.747 38.0244 265.726 38.2947 265.76 38.5609C265.794 38.8271 265.881 39.0839 266.016 39.3159C266.151 39.548 266.332 39.7506 266.547 39.9118C270.647 43.197 274.646 46.7227 278.424 50.4086ZM59.0093 42.5886C59.3432 42.8242 59.7414 42.9526 60.1505 42.9566L60.1304 42.9767C60.6275 42.997 61.1144 42.8328 61.497 42.5159C65.5201 39.1036 69.7122 35.8945 74.0576 32.9006C74.2782 32.7518 74.4668 32.5609 74.6127 32.3389C74.7586 32.1169 74.8587 31.8682 74.9073 31.6072C74.9559 31.3463 74.952 31.0784 74.8959 30.8189C74.8397 30.5595 74.7324 30.3138 74.5802 30.0961C74.2759 29.661 73.811 29.364 73.2873 29.2701C72.7636 29.1762 72.224 29.2932 71.7867 29.5953C67.3161 32.6553 63.0032 35.938 58.8643 39.431C58.5533 39.696 58.3309 40.0494 58.2268 40.4438C58.1227 40.8382 58.1418 41.2549 58.2816 41.6381C58.4215 42.0214 58.6753 42.353 59.0093 42.5886ZM713.971 41.8274C714.305 42.063 714.703 42.1914 715.113 42.1954L715.092 42.2155C715.571 42.2155 716.035 42.045 716.399 41.7347C720.463 38.3586 724.695 35.1895 729.08 32.2395C729.299 32.0922 729.487 31.9033 729.633 31.6837C729.779 31.464 729.879 31.2179 729.93 30.9593C729.98 30.7007 729.979 30.4348 729.926 30.1767C729.874 29.9186 729.77 29.6734 729.623 29.455C729.475 29.2367 729.285 29.0495 729.065 28.9042C728.845 28.7588 728.598 28.6582 728.338 28.6079C728.079 28.5577 727.812 28.5589 727.553 28.6115C727.294 28.664 727.048 28.7669 726.829 28.9142C722.368 31.939 717.987 35.2042 713.826 38.6698C713.515 38.9348 713.293 39.2882 713.189 39.6826C713.085 40.077 713.104 40.4936 713.244 40.8769C713.384 41.2602 713.637 41.5918 713.971 41.8274ZM908.707 31.2579C909.036 31.4699 909.421 31.5813 909.813 31.5784L909.792 31.5985C910.138 31.6239 910.484 31.5597 910.798 31.4123C911.111 31.2649 911.381 31.0392 911.581 30.7571C911.728 30.5377 911.831 30.2914 911.882 30.0325C911.933 29.7736 911.933 29.5071 911.88 29.2483C911.828 28.9896 911.725 28.7437 911.577 28.5247C911.429 28.3058 911.239 28.1182 911.018 27.9727C906.436 25.0079 901.714 22.2235 896.951 19.6994C896.479 19.4497 895.927 19.397 895.416 19.5529C894.906 19.7089 894.478 20.0606 894.227 20.5308C893.977 21.001 893.924 21.5511 894.08 22.0601C894.237 22.5692 894.59 22.9954 895.061 23.2451C899.744 25.6829 904.298 28.3573 908.707 31.2579ZM253.685 30.6169C254.014 30.8289 254.398 30.9403 254.79 30.9374L254.77 30.9575C255.12 30.963 255.466 30.8771 255.773 30.7085C256.079 30.5398 256.336 30.2942 256.519 29.9959C256.664 29.7741 256.764 29.5257 256.812 29.2652C256.86 29.0047 256.856 28.7372 256.8 28.4783C256.744 28.2193 256.637 27.974 256.485 27.7565C256.333 27.5391 256.14 27.3538 255.916 27.2115C251.354 24.2668 246.631 21.5224 241.848 19.0384C241.373 18.7913 240.82 18.7422 240.309 18.9019C239.799 19.0616 239.372 19.4169 239.125 19.8897C238.877 20.3626 238.827 20.9142 238.988 21.4232C239.148 21.9323 239.504 22.357 239.979 22.6041C244.683 25.0369 249.258 27.7115 253.685 30.6169ZM85.362 24.3995C85.7092 24.6715 86.1365 24.822 86.5781 24.8276C86.9209 24.8269 87.2585 24.7445 87.5629 24.5873C92.1852 22.0432 96.9683 19.6193 101.812 17.6161C102.075 17.5276 102.317 17.3857 102.522 17.1992C102.728 17.0128 102.892 16.7859 103.005 16.5329C103.118 16.28 103.177 16.0064 103.179 15.7294C103.181 15.4525 103.125 15.1783 103.015 14.924C102.904 14.6697 102.743 14.441 102.539 14.2522C102.336 14.0635 102.096 13.9188 101.833 13.8273C101.571 13.7357 101.293 13.6994 101.016 13.7206C100.739 13.7418 100.469 13.82 100.224 13.9502C95.26 16.0736 90.3563 18.4775 85.6134 21.0817C85.2292 21.2986 84.9274 21.6357 84.7546 22.0407C84.5818 22.4458 84.5476 22.8963 84.6574 23.3227C84.7672 23.749 85.0148 24.1274 85.362 24.3995ZM740.502 23.8487C740.851 24.1177 741.28 24.2645 741.721 24.2667H741.661C742.018 24.2788 742.372 24.1959 742.686 24.0264C747.328 21.5224 752.151 19.1786 756.995 17.1754C757.488 16.9682 757.878 16.5743 758.08 16.0803C758.281 15.5862 758.278 15.0326 758.07 14.5412C757.862 14.0498 757.467 13.6608 756.971 13.4598C756.476 13.2588 755.92 13.2623 755.427 13.4695C750.463 15.5728 745.519 17.9366 740.776 20.5007C740.382 20.7129 740.07 21.0504 739.89 21.4596C739.71 21.8689 739.673 22.3263 739.784 22.7591C739.895 23.192 740.147 23.5755 740.502 23.8487ZM880.692 16.4743C880.935 16.5701 881.194 16.6177 881.456 16.6145C881.917 16.6091 882.362 16.4457 882.717 16.1518C883.072 15.8579 883.314 15.4514 883.403 15.0004C883.493 14.5494 883.424 14.0814 883.209 13.675C882.993 13.2686 882.644 12.9485 882.219 12.7684C877.215 10.7251 872.05 8.9222 866.865 7.37973C866.356 7.23018 865.809 7.28737 865.342 7.53881C864.875 7.79025 864.527 8.21554 864.373 8.72188C864.296 8.97441 864.269 9.23968 864.295 9.50244C864.321 9.7652 864.399 10.0203 864.524 10.253C864.649 10.4857 864.819 10.6914 865.024 10.8584C865.23 11.0254 865.466 11.1503 865.72 11.2259C870.784 12.7283 875.808 14.4711 880.692 16.4743ZM225.549 16.0336C225.785 16.1298 226.038 16.1775 226.293 16.1738V16.1938C226.697 16.1926 227.093 16.0696 227.426 15.8408C227.76 15.6121 228.016 15.2883 228.162 14.9118C228.26 14.6672 228.308 14.4057 228.305 14.1423C228.301 13.879 228.245 13.619 228.141 13.3771C228.036 13.1352 227.885 12.9162 227.695 12.7327C227.506 12.5492 227.282 12.4048 227.036 12.3076C222.012 10.3044 216.847 8.54159 211.662 7.03919C211.407 6.9659 211.141 6.94357 210.877 6.97346C210.614 7.00335 210.359 7.08488 210.127 7.21335C209.896 7.34183 209.692 7.5147 209.528 7.72203C209.363 7.92937 209.242 8.16705 209.17 8.4214C209.027 8.92871 209.09 9.47182 209.346 9.93303C209.602 10.3942 210.029 10.7364 210.537 10.8853C215.601 12.3477 220.645 14.0304 225.549 16.0336ZM114.758 11.6864C115.121 11.9958 115.583 12.1663 116.06 12.1674V12.1874C116.261 12.211 116.465 12.2043 116.663 12.1674C121.688 10.6049 126.853 9.26274 131.997 8.16098C132.53 8.05207 132.998 7.73656 133.298 7.28388C133.597 6.83119 133.704 6.2784 133.595 5.74712C133.486 5.21584 133.169 4.74958 132.715 4.45092C132.261 4.15226 131.706 4.04566 131.173 4.15457C125.807 5.25634 120.602 6.59848 115.437 8.26114C114.984 8.40977 114.598 8.71456 114.349 9.12091C114.101 9.52726 114.005 10.0086 114.08 10.4787C114.155 10.9488 114.396 11.3769 114.758 11.6864ZM769.717 11.4455C770.149 11.7667 770.69 11.9039 771.223 11.8268V11.8469C771.424 11.8705 771.628 11.8637 771.826 11.8268C776.851 10.1842 782.036 8.8621 787.201 7.82044C787.734 7.71418 788.202 7.40123 788.504 6.95042C788.805 6.49961 788.915 5.94787 788.808 5.41659C788.702 4.88531 788.388 4.41799 787.936 4.11746C787.483 3.81692 786.93 3.70777 786.397 3.81403C781.081 4.88494 775.822 6.2221 770.641 7.82044C770.108 7.89747 769.627 8.1824 769.305 8.61255C768.983 9.0427 768.845 9.58282 768.922 10.1141C769 10.6454 769.286 11.1243 769.717 11.4455ZM850.285 7.49992H850.667L850.647 7.56002C851.18 7.61049 851.711 7.44785 852.124 7.10786C852.537 6.76788 852.797 6.2784 852.848 5.74712C852.898 5.21584 852.735 4.68626 852.394 4.2749C852.053 3.86354 851.562 3.60408 851.029 3.55361C845.711 2.52814 840.345 1.77263 834.951 1.28999C834.421 1.23978 833.892 1.40146 833.482 1.73952C833.071 2.07758 832.811 2.56435 832.76 3.09287C832.71 3.62145 832.872 4.14833 833.212 4.55776C833.551 4.96718 834.039 5.22565 834.569 5.27637C839.842 5.75483 845.087 6.49695 850.285 7.49992ZM195.142 7.27957H195.504L195.464 7.43983C195.997 7.48764 196.527 7.32245 196.938 6.98059C197.349 6.63872 197.606 6.1482 197.654 5.61691C197.702 5.08563 197.537 4.55711 197.194 4.14763C196.851 3.73814 196.359 3.48123 195.826 3.43342C190.56 2.45185 185.134 1.73069 179.748 1.26996C179.215 1.2248 178.686 1.39254 178.277 1.73628C177.868 2.08002 177.613 2.57161 177.567 3.10289C177.522 3.63417 177.69 4.16163 178.035 4.56924C178.38 4.97685 178.873 5.23121 179.406 5.27637C184.672 5.61691 189.957 6.31803 195.142 7.27957ZM145.999 5.06803C146.396 5.42304 146.919 5.60607 147.452 5.57685L147.613 5.55682C152.838 4.99592 158.164 4.59528 163.449 4.59528C163.982 4.59528 164.493 4.38423 164.87 4.00855C165.247 3.63288 165.459 3.12335 165.459 2.59207C165.459 2.06079 165.247 1.55127 164.87 1.17559C164.493 0.799919 163.982 0.588867 163.449 0.588867C157.963 0.588867 152.577 0.989508 147.231 1.57044C146.698 1.59966 146.198 1.83873 145.842 2.23507C145.486 2.6314 145.302 3.15254 145.332 3.68382C145.361 4.2151 145.601 4.71302 145.999 5.06803ZM801.165 4.94075C801.56 5.29764 802.082 5.48322 802.615 5.45666L802.796 5.43662C808.021 4.89576 813.347 4.59528 818.652 4.59528C819.185 4.59528 819.697 4.38423 820.074 4.00855C820.45 3.63288 820.662 3.12335 820.662 2.59207C820.662 2.06079 820.45 1.55127 820.074 1.17559C819.697 0.799919 819.185 0.588867 818.652 0.588867C813.226 0.608899 807.76 0.90938 802.414 1.45024C801.881 1.47681 801.38 1.71334 801.022 2.10779C800.664 2.50225 800.478 3.02233 800.505 3.55361C800.532 4.08489 800.769 4.58386 801.165 4.94075ZM1635.87 165.206C1636.24 165.582 1636.75 165.793 1637.29 165.793V165.753C1637.82 165.753 1638.33 165.542 1638.71 165.166C1639.09 164.791 1639.3 164.281 1639.3 163.75C1639.24 158.361 1638.92 152.913 1638.33 147.584C1638.31 147.322 1638.23 147.068 1638.1 146.837C1637.97 146.606 1637.8 146.402 1637.6 146.236C1637.39 146.07 1637.16 145.947 1636.9 145.872C1636.65 145.798 1636.38 145.773 1636.12 145.801C1635.86 145.829 1635.6 145.908 1635.37 146.033C1635.14 146.159 1634.94 146.329 1634.77 146.533C1634.6 146.738 1634.48 146.973 1634.4 147.226C1634.33 147.478 1634.31 147.743 1634.33 148.005C1634.9 153.213 1635.28 158.522 1635.28 163.79C1635.28 164.321 1635.49 164.831 1635.87 165.206ZM1310.67 153.934H1310.83C1311.35 153.969 1311.85 153.805 1312.25 153.477C1312.65 153.149 1312.9 152.681 1312.96 152.171C1313.32 146.923 1314.03 141.655 1314.97 136.486C1315.07 135.955 1314.95 135.407 1314.64 134.964C1314.33 134.521 1313.86 134.218 1313.32 134.123C1312.79 134.027 1312.24 134.146 1311.8 134.454C1311.35 134.762 1311.05 135.234 1310.95 135.765C1309.99 140.994 1309.26 146.402 1308.82 151.791C1308.78 152.319 1308.96 152.841 1309.3 153.243C1309.65 153.645 1310.14 153.893 1310.67 153.934ZM1632.51 133.564C1632.88 133.857 1633.34 134.012 1633.81 134.002L1634.07 133.962C1634.33 133.908 1634.58 133.802 1634.79 133.653C1635.01 133.503 1635.2 133.312 1635.34 133.091C1635.49 132.869 1635.58 132.622 1635.63 132.362C1635.68 132.103 1635.68 131.836 1635.62 131.578C1634.61 126.31 1633.23 121.042 1631.6 115.893C1631.53 115.627 1631.41 115.377 1631.25 115.159C1631.08 114.942 1630.87 114.76 1630.63 114.627C1630.39 114.493 1630.12 114.41 1629.85 114.383C1629.57 114.356 1629.3 114.386 1629.04 114.469C1628.77 114.553 1628.53 114.69 1628.32 114.871C1628.12 115.052 1627.95 115.273 1627.83 115.521C1627.71 115.769 1627.65 116.039 1627.64 116.313C1627.63 116.587 1627.68 116.86 1627.78 117.115C1629.37 122.123 1630.74 127.272 1631.8 132.4C1631.9 132.859 1632.15 133.271 1632.51 133.564ZM1316.06 122.464C1316.24 122.493 1316.42 122.493 1316.6 122.464C1317.03 122.473 1317.45 122.346 1317.8 122.101C1318.15 121.856 1318.41 121.506 1318.55 121.102C1320 116.031 1321.71 111.037 1323.67 106.138C1323.87 105.644 1323.86 105.092 1323.65 104.603C1323.44 104.115 1323.04 103.73 1322.55 103.534C1322.05 103.337 1321.5 103.345 1321.01 103.555C1320.52 103.766 1320.13 104.161 1319.94 104.655C1317.95 109.643 1316.18 114.812 1314.67 119.98C1314.6 120.234 1314.57 120.5 1314.6 120.762C1314.63 121.025 1314.72 121.279 1314.84 121.51C1314.97 121.74 1315.15 121.944 1315.36 122.107C1315.56 122.271 1315.8 122.392 1316.06 122.464ZM1623.06 103.16C1623.38 103.377 1623.77 103.493 1624.16 103.494C1624.43 103.493 1624.7 103.438 1624.95 103.333C1625.19 103.231 1625.42 103.08 1625.6 102.892C1625.79 102.703 1625.94 102.479 1626.03 102.233C1626.13 101.987 1626.18 101.724 1626.18 101.459C1626.18 101.194 1626.12 100.932 1626.01 100.689C1623.88 95.7611 1621.49 90.8533 1618.88 86.1257C1618.75 85.8955 1618.58 85.6926 1618.37 85.5287C1618.17 85.3648 1617.93 85.2431 1617.67 85.1705C1617.42 85.098 1617.16 85.076 1616.89 85.1058C1616.63 85.1357 1616.38 85.2168 1616.15 85.3445C1615.68 85.6019 1615.34 86.0301 1615.2 86.5363C1615.05 87.0425 1615.11 87.5859 1615.36 88.0488C1617.89 92.6762 1620.31 97.4438 1622.32 102.272C1622.47 102.634 1622.73 102.943 1623.06 103.16ZM1327.55 92.5159C1327.84 92.662 1328.16 92.7376 1328.48 92.7363C1328.84 92.7243 1329.19 92.6157 1329.49 92.4218C1329.8 92.2279 1330.04 91.956 1330.2 91.6345C1332.68 86.9871 1335.37 82.3797 1338.24 77.9727C1338.39 77.7517 1338.49 77.5047 1338.53 77.2456C1338.58 76.9866 1338.58 76.7207 1338.52 76.4631C1338.47 76.2054 1338.36 75.9611 1338.21 75.7441C1338.06 75.5271 1337.87 75.3416 1337.65 75.1982C1337.43 75.0549 1337.18 74.9564 1336.92 74.9085C1336.66 74.8606 1336.39 74.8642 1336.14 74.9191C1335.88 74.974 1335.63 75.0791 1335.42 75.2284C1335.2 75.3776 1335.01 75.5682 1334.87 75.7892C1331.93 80.3365 1329.18 85.044 1326.69 89.8116C1326.57 90.0456 1326.49 90.3014 1326.47 90.5641C1326.45 90.8268 1326.48 91.0914 1326.56 91.3427C1326.64 91.5939 1326.77 91.8269 1326.94 92.0282C1327.11 92.2296 1327.32 92.3953 1327.55 92.5159ZM1607.75 75.2354C1608.04 75.3891 1608.36 75.4692 1608.69 75.4687C1609.1 75.4677 1609.5 75.3419 1609.83 75.1081C1610.27 74.8048 1610.57 74.3414 1610.66 73.8194C1610.76 73.2974 1610.64 72.7595 1610.34 72.3236C1607.27 67.8623 1603.99 63.5567 1600.49 59.423C1600.32 59.2218 1600.11 59.0559 1599.88 58.9349C1599.64 58.8139 1599.39 58.7402 1599.12 58.7178C1598.86 58.6955 1598.59 58.7251 1598.34 58.8048C1598.09 58.8846 1597.86 59.0129 1597.66 59.1826C1597.45 59.3523 1597.29 59.5599 1597.17 59.7937C1597.05 60.0275 1596.97 60.2828 1596.95 60.5451C1596.93 60.8074 1596.96 61.0715 1597.04 61.3223C1597.12 61.5732 1597.24 61.8059 1597.42 62.0071C1600.83 66.0377 1604.03 70.2364 1607.02 74.5873C1607.21 74.8591 1607.45 75.0817 1607.75 75.2354ZM1344.72 65.4727C1345.07 65.7554 1345.51 65.9108 1345.96 65.9134C1346.26 65.9144 1346.56 65.8484 1346.83 65.7201C1347.1 65.5918 1347.34 65.4046 1347.53 65.1722C1350.82 61.0656 1354.36 57.0792 1358.04 53.3132C1358.41 52.9307 1358.61 52.4172 1358.6 51.8856C1358.59 51.354 1358.37 50.8479 1357.99 50.4787C1357.61 50.1095 1357.09 49.9073 1356.56 49.9167C1356.02 49.9261 1355.52 50.1462 1355.15 50.5288C1351.39 54.3749 1347.77 58.4615 1344.39 62.6882C1344.07 63.1021 1343.92 63.6253 1343.98 64.1458C1344.04 64.6664 1344.31 65.1427 1344.72 65.4727ZM1586.64 50.4086C1587.02 50.7713 1587.53 50.9726 1588.05 50.9695H1588.03C1588.3 50.9684 1588.56 50.9147 1588.8 50.8115C1589.05 50.7084 1589.27 50.5578 1589.46 50.3685C1589.83 49.9932 1590.04 49.4855 1590.04 48.9563C1590.04 48.427 1589.83 47.9193 1589.46 47.544C1585.58 43.778 1581.48 40.1522 1577.28 36.7868C1577.07 36.6125 1576.84 36.4811 1576.58 36.4002C1576.32 36.3193 1576.05 36.2906 1575.78 36.3159C1575.52 36.3411 1575.26 36.4198 1575.02 36.5472C1574.78 36.6746 1574.57 36.8482 1574.4 37.0576C1574.24 37.267 1574.11 37.5079 1574.04 37.7662C1573.97 38.0244 1573.95 38.2947 1573.98 38.5609C1574.01 38.8271 1574.1 39.0839 1574.23 39.3159C1574.37 39.548 1574.55 39.7506 1574.77 39.9118C1578.87 43.197 1582.86 46.7227 1586.64 50.4086ZM1367.23 42.5886C1367.56 42.8242 1367.96 42.9526 1368.37 42.9567L1368.35 42.9767C1368.85 42.997 1369.33 42.8328 1369.72 42.5159C1373.74 39.1036 1377.93 35.8945 1382.28 32.9006C1382.5 32.7518 1382.69 32.5609 1382.83 32.3389C1382.98 32.1169 1383.08 31.8682 1383.13 31.6072C1383.17 31.3463 1383.17 31.0784 1383.11 30.8189C1383.06 30.5595 1382.95 30.3138 1382.8 30.0961C1382.49 29.661 1382.03 29.364 1381.51 29.2701C1380.98 29.1762 1380.44 29.2932 1380.01 29.5953C1375.53 32.6553 1371.22 35.938 1367.08 39.431C1366.77 39.696 1366.55 40.0494 1366.45 40.4438C1366.34 40.8382 1366.36 41.2549 1366.5 41.6381C1366.64 42.0214 1366.89 42.353 1367.23 42.5886ZM1561.9 30.6169C1562.23 30.8289 1562.62 30.9403 1563.01 30.9374L1562.99 30.9575C1563.34 30.963 1563.68 30.8771 1563.99 30.7085C1564.3 30.5398 1564.56 30.2942 1564.74 29.9959C1564.88 29.7741 1564.98 29.5257 1565.03 29.2652C1565.08 29.0047 1565.07 28.7372 1565.02 28.4783C1564.96 28.2193 1564.86 27.974 1564.7 27.7565C1564.55 27.5391 1564.36 27.3538 1564.13 27.2115C1559.57 24.2668 1554.85 21.5224 1550.07 19.0384C1549.59 18.7913 1549.04 18.7422 1548.53 18.9019C1548.02 19.0616 1547.59 19.4169 1547.34 19.8897C1547.1 20.3626 1547.05 20.9142 1547.21 21.4232C1547.37 21.9323 1547.72 22.357 1548.2 22.6041C1552.9 25.0369 1557.48 27.7115 1561.9 30.6169ZM1393.58 24.3995C1393.93 24.6715 1394.36 24.822 1394.8 24.8277C1395.14 24.8269 1395.48 24.7445 1395.78 24.5873C1400.4 22.0432 1405.19 19.6193 1410.03 17.6161C1410.29 17.5276 1410.54 17.3857 1410.74 17.1992C1410.95 17.0128 1411.11 16.7859 1411.22 16.5329C1411.34 16.28 1411.4 16.0064 1411.4 15.7294C1411.4 15.4525 1411.34 15.1783 1411.23 14.924C1411.12 14.6697 1410.96 14.441 1410.76 14.2522C1410.55 14.0635 1410.31 13.9188 1410.05 13.8273C1409.79 13.7357 1409.51 13.6994 1409.23 13.7206C1408.96 13.7418 1408.69 13.82 1408.44 13.9502C1403.48 16.0736 1398.58 18.4775 1393.83 21.0817C1393.45 21.2986 1393.15 21.6357 1392.97 22.0407C1392.8 22.4458 1392.77 22.8963 1392.88 23.3227C1392.99 23.749 1393.23 24.1274 1393.58 24.3995ZM1533.77 16.0336C1534 16.1298 1534.26 16.1775 1534.51 16.1738V16.1938C1534.92 16.1926 1535.31 16.0696 1535.64 15.8408C1535.98 15.6121 1536.23 15.2883 1536.38 14.9118C1536.48 14.6672 1536.53 14.4057 1536.52 14.1423C1536.52 13.879 1536.46 13.619 1536.36 13.3771C1536.25 13.1352 1536.1 12.9162 1535.91 12.7327C1535.72 12.5492 1535.5 12.4048 1535.26 12.3076C1530.23 10.3044 1525.07 8.54159 1519.88 7.03919C1519.63 6.96591 1519.36 6.94357 1519.1 6.97346C1518.83 7.00335 1518.58 7.08488 1518.35 7.21335C1518.11 7.34183 1517.91 7.51471 1517.75 7.72204C1517.58 7.92937 1517.46 8.16705 1517.39 8.4214C1517.25 8.92871 1517.31 9.47182 1517.56 9.93303C1517.82 10.3942 1518.25 10.7364 1518.76 10.8853C1523.82 12.3477 1528.86 14.0304 1533.77 16.0336ZM1422.98 11.6864C1423.34 11.9958 1423.8 12.1663 1424.28 12.1674V12.1874C1424.48 12.211 1424.68 12.2043 1424.88 12.1674C1429.91 10.6049 1435.07 9.26274 1440.22 8.16098C1440.75 8.05207 1441.22 7.73657 1441.52 7.28388C1441.82 6.83119 1441.92 6.2784 1441.81 5.74712C1441.7 5.21584 1441.39 4.74958 1440.93 4.45092C1440.48 4.15226 1439.93 4.04566 1439.39 4.15457C1434.03 5.25634 1428.82 6.59848 1423.66 8.26114C1423.2 8.40977 1422.82 8.71456 1422.57 9.12091C1422.32 9.52726 1422.22 10.0086 1422.3 10.4787C1422.37 10.9488 1422.61 11.3769 1422.98 11.6864ZM1503.36 7.27957H1503.72L1503.68 7.43983C1504.22 7.48764 1504.75 7.32245 1505.16 6.98059C1505.57 6.63872 1505.83 6.1482 1505.87 5.61691C1505.92 5.08563 1505.76 4.55711 1505.41 4.14763C1505.07 3.73814 1504.58 3.48123 1504.04 3.43342C1498.78 2.45185 1493.35 1.73069 1487.97 1.26996C1487.43 1.2248 1486.9 1.39254 1486.5 1.73628C1486.09 2.08002 1485.83 2.57161 1485.79 3.10289C1485.74 3.63417 1485.91 4.16164 1486.25 4.56924C1486.6 4.97685 1487.09 5.23121 1487.62 5.27637C1492.89 5.61691 1498.18 6.31803 1503.36 7.27957ZM1454.22 5.06803C1454.61 5.42304 1455.14 5.60607 1455.67 5.57685L1455.83 5.55682C1461.06 4.99592 1466.38 4.59528 1471.67 4.59528C1472.2 4.59528 1472.71 4.38423 1473.09 4.00855C1473.47 3.63288 1473.68 3.12336 1473.68 2.59207C1473.68 2.06079 1473.47 1.55127 1473.09 1.17559C1472.71 0.799919 1472.2 0.588867 1471.67 0.588867C1466.18 0.588867 1460.8 0.989508 1455.45 1.57044C1454.92 1.59966 1454.42 1.83873 1454.06 2.23507C1453.7 2.6314 1453.52 3.15254 1453.55 3.68382C1453.58 4.2151 1453.82 4.71302 1454.22 5.06803Z" fill="#E2E2E2"/>
</svg>
